<svg width="182" height="167" viewBox="0 0 182 167" fill="none" xmlns="http://www.w3.org/2000/svg">
<path fill-rule="evenodd" clip-rule="evenodd" d="M41.2545 57.8018C32.3187 75.2578 32.8703 96.9106 44.5681 114.352C56.2659 131.793 76.0899 140.519 95.6314 138.876C95.3986 139.037 95.1643 139.198 94.928 139.356C72.5367 154.374 42.2104 148.397 27.1925 126.005C12.1746 103.614 18.1519 73.2879 40.5432 58.27C40.7795 58.1115 41.0166 57.9554 41.2545 57.8018Z" fill="#EC5785"/>
<path fill-rule="evenodd" clip-rule="evenodd" d="M64.4221 42.2632C55.4861 59.7194 56.0379 81.372 67.7356 98.813C79.4334 116.254 99.2572 124.981 118.799 123.338C118.566 123.499 118.332 123.659 118.096 123.818C95.7041 138.836 65.3779 132.858 50.36 110.467C35.3421 88.0756 41.3193 57.7495 63.7107 42.7314C63.947 42.5729 64.1841 42.4169 64.4221 42.2632Z" fill="#EC5785"/>
<path d="M86.8786 27.1922C64.4874 42.2101 58.51 72.5364 73.528 94.9277C88.5459 117.319 118.872 123.296 141.263 108.279C163.655 93.2604 169.632 62.9341 154.614 40.5429C139.596 18.1516 109.27 12.1743 86.8786 27.1922Z" fill="#EC5785"/>
<path d="M114.392 90.768C110.467 90.768 107.139 90.1067 104.408 88.784C101.677 87.4187 99.352 85.6693 97.432 83.536L103.832 77.072C106.861 80.4853 110.595 82.192 115.032 82.192C117.421 82.192 119.192 81.7013 120.344 80.72C121.496 79.7387 122.072 78.4373 122.072 76.816C122.072 75.5787 121.731 74.5547 121.048 73.744C120.365 72.8907 118.979 72.3147 116.888 72.016L112.472 71.44C107.736 70.8427 104.259 69.4133 102.04 67.152C99.864 64.8907 98.776 61.8827 98.776 58.128C98.776 56.1227 99.16 54.288 99.928 52.624C100.696 50.96 101.784 49.5307 103.192 48.336C104.643 47.1413 106.392 46.224 108.44 45.584C110.531 44.9013 112.899 44.56 115.544 44.56C118.915 44.56 121.88 45.0933 124.44 46.16C127 47.2267 129.197 48.784 131.032 50.832L124.568 57.36C123.501 56.1227 122.2 55.12 120.664 54.352C119.171 53.5413 117.272 53.136 114.968 53.136C112.792 53.136 111.171 53.52 110.104 54.288C109.037 55.056 108.504 56.1227 108.504 57.488C108.504 59.024 108.909 60.1333 109.72 60.816C110.573 61.4987 111.939 61.9893 113.816 62.288L118.232 62.992C122.84 63.7173 126.253 65.1467 128.472 67.28C130.691 69.3707 131.8 72.3573 131.8 76.24C131.8 78.3733 131.416 80.336 130.648 82.128C129.88 83.92 128.749 85.456 127.256 86.736C125.805 88.016 123.992 89.0187 121.816 89.744C119.64 90.4267 117.165 90.768 114.392 90.768Z" fill="white"/>
</svg>
